<?xml version="1.0" encoding="UTF-8" standalone="no"?>
<!-- Generator: Adobe Illustrator 18.0.0, SVG Export Plug-In . SVG Version: 6.00 Build 0)  -->

<svg
   xmlns:osb="http://www.openswatchbook.org/uri/2009/osb"
   xmlns:dc="http://purl.org/dc/elements/1.1/"
   xmlns:cc="http://creativecommons.org/ns#"
   xmlns:rdf="http://www.w3.org/1999/02/22-rdf-syntax-ns#"
   xmlns:svg="http://www.w3.org/2000/svg"
   xmlns="http://www.w3.org/2000/svg"
   xmlns:sodipodi="http://sodipodi.sourceforge.net/DTD/sodipodi-0.dtd"
   xmlns:inkscape="http://www.inkscape.org/namespaces/inkscape"
   version="1.1"
   id="Capa_1"
   x="0px"
   y="0px"
   viewBox="0 0 51 51"
   style="enable-background:new 0 0 51 51;"
   xml:space="preserve"
   sodipodi:docname="justTear.svg"
   inkscape:version="0.92.4 (5da689c313, 2019-01-14)"><metadata
   id="metadata3931"><rdf:RDF><cc:Work
       rdf:about=""><dc:format>image/svg+xml</dc:format><dc:type
         rdf:resource="http://purl.org/dc/dcmitype/StillImage" /><dc:title></dc:title></cc:Work></rdf:RDF></metadata><defs
   id="defs3929"><linearGradient
     id="linearGradient6411"
     osb:paint="solid"><stop
       style="stop-color:#000000;stop-opacity:1;"
       offset="0"
       id="stop6409" /></linearGradient></defs><sodipodi:namedview
   pagecolor="#ffffff"
   bordercolor="#666666"
   borderopacity="1"
   objecttolerance="10"
   gridtolerance="10"
   guidetolerance="10"
   inkscape:pageopacity="0"
   inkscape:pageshadow="2"
   inkscape:window-width="1366"
   inkscape:window-height="705"
   id="namedview3927"
   showgrid="false"
   inkscape:zoom="7.4592836"
   inkscape:cx="28.065286"
   inkscape:cy="19.676794"
   inkscape:window-x="-8"
   inkscape:window-y="-8"
   inkscape:window-maximized="1"
   inkscape:current-layer="Capa_1" />
<g
   id="g3894">
	
	
	
	
	
	
</g>
<g
   id="g3896">
</g>
<g
   id="g3898">
</g>
<g
   id="g3900">
</g>
<g
   id="g3902">
</g>
<g
   id="g3904">
</g>
<g
   id="g3906">
</g>
<g
   id="g3908">
</g>
<g
   id="g3910">
</g>
<g
   id="g3912">
</g>
<g
   id="g3914">
</g>
<g
   id="g3916">
</g>
<g
   id="g3918">
</g>
<g
   id="g3920">
</g>
<g
   id="g3922">
</g>
<g
   id="g3924">
</g>
<g
   id="g6485"
   transform="translate(0,2)"><g
     id="g4959"><g
       id="g6488"><ellipse
         style="fill:#ffd42a;fill-opacity:1;stroke-width:1.17630482"
         ry="6.3008733"
         rx="6.8706336"
         cy="36.65546"
         cx="26.041376"
         id="path4146" /></g><ellipse
       id="path4146-8"
       cx="25.94083"
       cy="38.197163"
       rx="4.2564416"
       ry="3.686681"
       style="fill:#ff0000;fill-opacity:1;stroke-width:0.70821029" /><path
       inkscape:connector-curvature="0"
       id="path4094"
       d="m 28.745974,40.562195 0.400103,-0.0028 c -0.0085,-1.841574 -1.447757,-3.324156 -3.215812,-3.312337 -1.768054,0.01223 -3.193914,1.514305 -3.185835,3.355884 0.0085,1.841469 1.447755,3.324051 3.215812,3.312233 1.767953,-0.01223 3.193813,-1.514307 3.185835,-3.35578 l -0.400103,0.0028 -0.400103,0.0028 c 0.003,0.691829 -0.262161,1.316088 -0.695132,1.772902 -0.433675,0.456195 -1.029974,0.739178 -1.694244,0.744011 -0.664272,0.0043 -1.263081,-0.270754 -1.70083,-0.720916 -0.437051,-0.450793 -0.707719,-1.071512 -0.711029,-1.763337 -0.003,-0.691934 0.262161,-1.316194 0.695132,-1.773008 0.433674,-0.456194 1.029974,-0.739178 1.694244,-0.744009 0.664171,-0.0043 1.263079,0.270753 1.700829,0.720914 0.437052,0.450794 0.707719,1.071513 0.71103,1.763443 z"
       style="fill:#000000;stroke-width:0.10208865" /></g></g></svg>