<?xml version="1.0" encoding="UTF-8" standalone="no"?>
<!-- Generator: Adobe Illustrator 18.0.0, SVG Export Plug-In . SVG Version: 6.00 Build 0)  -->

<svg
   xmlns:osb="http://www.openswatchbook.org/uri/2009/osb"
   xmlns:dc="http://purl.org/dc/elements/1.1/"
   xmlns:cc="http://creativecommons.org/ns#"
   xmlns:rdf="http://www.w3.org/1999/02/22-rdf-syntax-ns#"
   xmlns:svg="http://www.w3.org/2000/svg"
   xmlns="http://www.w3.org/2000/svg"
   xmlns:sodipodi="http://sodipodi.sourceforge.net/DTD/sodipodi-0.dtd"
   xmlns:inkscape="http://www.inkscape.org/namespaces/inkscape"
   version="1.1"
   id="Capa_1"
   x="0px"
   y="0px"
   viewBox="0 0 51 51"
   style="enable-background:new 0 0 51 51;"
   xml:space="preserve"
   sodipodi:docname="oneTearResized.svg"
   inkscape:version="0.92.4 (5da689c313, 2019-01-14)"><metadata
   id="metadata3931"><rdf:RDF><cc:Work
       rdf:about=""><dc:format>image/svg+xml</dc:format><dc:type
         rdf:resource="http://purl.org/dc/dcmitype/StillImage" /><dc:title></dc:title></cc:Work></rdf:RDF></metadata><defs
   id="defs3929"><linearGradient
     id="linearGradient6411"
     osb:paint="solid"><stop
       style="stop-color:#000000;stop-opacity:1;"
       offset="0"
       id="stop6409" /></linearGradient></defs><sodipodi:namedview
   pagecolor="#ffffff"
   bordercolor="#666666"
   borderopacity="1"
   objecttolerance="10"
   gridtolerance="10"
   guidetolerance="10"
   inkscape:pageopacity="0"
   inkscape:pageshadow="2"
   inkscape:window-width="1366"
   inkscape:window-height="705"
   id="namedview3927"
   showgrid="false"
   inkscape:zoom="7.4592836"
   inkscape:cx="32.141822"
   inkscape:cy="27.611564"
   inkscape:window-x="-8"
   inkscape:window-y="-8"
   inkscape:window-maximized="1"
   inkscape:current-layer="Capa_1" />
<g
   id="g3894">
	<path
   style="fill:#AF8066;"
   d="M25.5,10c-0.552,0-1-0.447-1-1c0-4.963,4.038-9,9-9c0.552,0,1,0.447,1,1s-0.448,1-1,1   c-3.86,0-7,3.141-7,7C26.5,9.553,26.052,10,25.5,10z"
   id="path3882" />
	<circle
   style="fill:#ffccaa"
   cx="25.5"
   cy="30"
   r="21"
   id="circle3884" />
	<path
   style="fill:#F29C1F;"
   d="M20.5,26c-0.552,0-1-0.447-1-1c0-1.654-1.346-3-3-3s-3,1.346-3,3c0,0.553-0.448,1-1,1s-1-0.447-1-1   c0-2.757,2.243-5,5-5s5,2.243,5,5C21.5,25.553,21.052,26,20.5,26z"
   id="path3886" />
	<path
   style="fill:#F29C1F;"
   d="M38.5,26c-0.552,0-1-0.447-1-1c0-1.654-1.346-3-3-3s-3,1.346-3,3c0,0.553-0.448,1-1,1s-1-0.447-1-1   c0-2.757,2.243-5,5-5s5,2.243,5,5C39.5,25.553,39.052,26,38.5,26z"
   id="path3888" />
	
	
</g>
<g
   id="g3896">
</g>
<g
   id="g3898">
</g>
<g
   id="g3900">
</g>
<g
   id="g3902">
</g>
<g
   id="g3904">
</g>
<g
   id="g3906">
</g>
<g
   id="g3908">
</g>
<g
   id="g3910">
</g>
<g
   id="g3912">
</g>
<g
   id="g3914">
</g>
<g
   id="g3916">
</g>
<g
   id="g3918">
</g>
<g
   id="g3920">
</g>
<g
   id="g3922">
</g>
<g
   id="g3924">
</g>
<g
   id="soother"
   transform="translate(0,2)"><g
     id="g4959"><g
       id="g6488"><ellipse
         style="fill:#ffd42a;fill-opacity:1;stroke-width:1.17630482"
         ry="6.3008733"
         rx="6.8706336"
         cy="36.65546"
         cx="26.041376"
         id="path4146" /></g><ellipse
       id="path4146-8"
       cx="25.94083"
       cy="38.197163"
       rx="4.2564416"
       ry="3.686681"
       style="fill:#ff0000;fill-opacity:1;stroke-width:0.70821029" /><path
       inkscape:connector-curvature="0"
       id="path4094"
       d="m 28.745974,40.562195 0.400103,-0.0028 c -0.0085,-1.841574 -1.447757,-3.324156 -3.215812,-3.312337 -1.768054,0.01223 -3.193914,1.514305 -3.185835,3.355884 0.0085,1.841469 1.447755,3.324051 3.215812,3.312233 1.767953,-0.01223 3.193813,-1.514307 3.185835,-3.35578 l -0.400103,0.0028 -0.400103,0.0028 c 0.003,0.691829 -0.262161,1.316088 -0.695132,1.772902 -0.433675,0.456195 -1.029974,0.739178 -1.694244,0.744011 -0.664272,0.0043 -1.263081,-0.270754 -1.70083,-0.720916 -0.437051,-0.450793 -0.707719,-1.071512 -0.711029,-1.763337 -0.003,-0.691934 0.262161,-1.316194 0.695132,-1.773008 0.433674,-0.456194 1.029974,-0.739178 1.694244,-0.744009 0.664171,-0.0043 1.263079,0.270753 1.700829,0.720914 0.437052,0.450794 0.707719,1.071513 0.71103,1.763443 z"
       style="fill:#000000;stroke-width:0.10208865" /></g></g>
	   <path id="tear" style="fill:#007fff;fill-opacity:0.80662985;stroke-width:0.00061112"
   inkscape:connector-curvature="0"
   d="m 36.74407,26.224852 c -0.07394,1.088639 -0.289636,2.19594 -0.655923,3.369946 -0.05694,0.182214 -0.189616,0.705533 -0.210405,0.831442 -0.01862,0.111752 -0.04293,0.312147 -0.05478,0.445772 -0.0151,0.176125 0.0079,0.39552 0.07384,0.709428 0.01889,0.09147 0.01981,0.09377 0.107667,0.305893 0.08853,0.213867 0.112683,0.264698 0.190531,0.391126 0.3707,0.607627 1.00032,1.078759 1.707695,1.277687 0.377393,0.106621 0.754177,0.128426 1.122142,0.06605 0.04032,-0.0067 0.09761,-0.01501 0.126655,-0.01729 0.02825,-0.0027 0.07632,-0.01117 0.105249,-0.01871 0.02948,-0.0078 0.08505,-0.02196 0.123975,-0.03218 0.0981,-0.02518 0.451083,-0.165965 0.539585,-0.215219 0.03528,-0.01935 0.08592,-0.04756 0.11209,-0.06197 0.02674,-0.01465 0.07039,-0.04403 0.09788,-0.06496 0.0275,-0.02087 0.07853,-0.05791 0.11389,-0.08197 0.393381,-0.266539 0.718245,-0.670536 0.925168,-1.149751 0.0934,-0.216646 0.143412,-0.375468 0.187552,-0.593088 0.05433,-0.268845 0.07008,-0.507029 0.05174,-0.758844 -0.012,-0.167312 -0.05557,-0.413721 -0.09992,-0.564132 -0.0093,-0.03085 -0.02206,-0.07825 -0.02878,-0.104809 -0.0073,-0.03029 -0.03971,-0.114389 -0.08394,-0.222337 -0.06469,-0.15625 -0.07725,-0.181807 -0.121255,-0.253289 -0.12148,-0.196731 -0.253606,-0.367956 -0.358269,-0.463756 -0.165495,-0.151933 -0.485989,-0.396856 -0.615198,-0.470903 -0.07755,-0.04415 -0.172531,-0.102621 -0.2534,-0.156749 -0.03063,-0.01972 -0.130021,-0.07771 -0.221013,-0.127792 C 38.92864,27.87781 38.34813,27.50204 37.866192,27.1235 c -0.270401,-0.212426 -0.562814,-0.471875 -0.780986,-0.693828 -0.0892,-0.09134 -0.326103,-0.317769 -0.330828,-0.316554 -0.0017,6.85e-4 -0.0064,0.05104 -0.01017,0.111707 z"
   /></svg>